<svg width="20" height="19" viewBox="0 0 20 19" fill="none" xmlns="http://www.w3.org/2000/svg">
<path d="M3.7304 0.0301514C2.88073 0.0301514 2.06587 0.367679 1.46507 0.968481C0.864265 1.56928 0.526737 2.38415 0.526737 3.23381V9.64113C0.526737 10.4908 0.864265 11.3057 1.46507 11.9065C2.06587 12.5073 2.88073 12.8448 3.7304 12.8448H10.0694C10.277 13.433 10.692 13.9254 11.2366 14.2296C11.7812 14.5339 12.418 14.6291 13.0278 14.4975C13.6376 14.3659 14.1785 14.0165 14.5491 13.5147C14.9198 13.0129 15.0948 12.3933 15.0413 11.7717C14.9879 11.1502 14.7096 10.5695 14.2588 10.1384C13.8079 9.70727 13.2153 9.45534 12.592 9.42978C11.9687 9.40422 11.3575 9.60678 10.8728 9.99953C10.3882 10.3923 10.0633 10.9483 9.95916 11.5633H3.7304C3.2206 11.5633 2.73168 11.3608 2.3712 11.0003C2.01072 10.6398 1.8082 10.1509 1.8082 9.64113V3.23381C1.8082 2.72401 2.01072 2.23509 2.3712 1.87461C2.73168 1.51413 3.2206 1.31161 3.7304 1.31161H10.1377C10.6475 1.31161 11.1364 1.51413 11.4969 1.87461C11.8574 2.23509 12.0599 2.72401 12.0599 3.23381V3.66096C12.0599 3.8309 12.1274 3.99387 12.2476 4.11403C12.3677 4.23419 12.5307 4.3017 12.7006 4.3017C12.8706 4.3017 13.0335 4.23419 13.1537 4.11403C13.2739 3.99387 13.3414 3.8309 13.3414 3.66096V3.23381C13.3414 2.38415 13.0038 1.56928 12.403 0.968481C11.8022 0.367679 10.9874 0.0301514 10.1377 0.0301514H3.7304ZM9.7789 6.01031C9.57126 5.42207 9.15627 4.92971 8.61167 4.62548C8.06707 4.32125 7.43023 4.22601 6.82045 4.35762C6.21067 4.48922 5.6698 4.83863 5.29915 5.3404C4.92851 5.84216 4.75352 6.46185 4.80697 7.08337C4.86042 7.70489 5.13864 8.28561 5.58952 8.71672C6.04039 9.14783 6.63298 9.39977 7.25627 9.42533C7.87957 9.45088 8.49079 9.24832 8.97545 8.85557C9.46011 8.46282 9.78495 7.90684 9.88911 7.29178H16.1179C16.6277 7.29178 17.1166 7.49429 17.4771 7.85478C17.8376 8.21526 18.0401 8.70418 18.0401 9.21397V15.6213C18.0401 16.1311 17.8376 16.62 17.4771 16.9805C17.1166 17.341 16.6277 17.5435 16.1179 17.5435H9.71056C9.20076 17.5435 8.71184 17.341 8.35136 16.9805C7.99088 16.62 7.78836 16.1311 7.78836 15.6213V15.1941C7.78836 15.0242 7.72086 14.8612 7.6007 14.7411C7.48054 14.6209 7.31756 14.5534 7.14763 14.5534C6.9777 14.5534 6.81473 14.6209 6.69457 14.7411C6.57441 14.8612 6.5069 15.0242 6.5069 15.1941V15.6213C6.5069 16.471 6.84443 17.2858 7.44523 17.8866C8.04603 18.4874 8.8609 18.8249 9.71056 18.8249H16.1179C16.9675 18.8249 17.7824 18.4874 18.3832 17.8866C18.984 17.2858 19.3215 16.471 19.3215 15.6213V9.21397C19.3215 8.36431 18.984 7.54945 18.3832 6.94864C17.7824 6.34784 16.9675 6.01031 16.1179 6.01031H9.7789Z" fill="black"/>
</svg>
