<svg width="30" height="40" viewBox="0 0 30 40" fill="none" xmlns="http://www.w3.org/2000/svg">
<path fill-rule="evenodd" clip-rule="evenodd" d="M26.0478 13.4547H24.2145V9.788C24.2145 4.728 20.1078 0.621338 15.0478 0.621338C9.98785 0.621338 5.88118 4.728 5.88118 9.788V13.4547H4.04785C2.03118 13.4547 0.38118 15.1047 0.38118 17.1213V35.4547C0.38118 37.4713 2.03118 39.1213 4.04785 39.1213H26.0478C28.0645 39.1213 29.7145 37.4713 29.7145 35.4547V17.1213C29.7145 15.1047 28.0645 13.4547 26.0478 13.4547ZM15.0478 29.9547C13.0312 29.9547 11.3812 28.3047 11.3812 26.288C11.3812 24.2713 13.0312 22.6213 15.0478 22.6213C17.0645 22.6213 18.7145 24.2713 18.7145 26.288C18.7145 28.3047 17.0645 29.9547 15.0478 29.9547ZM9.54785 9.788V13.4547H20.5478V9.788C20.5478 6.74467 18.0912 4.288 15.0478 4.288C12.0045 4.288 9.54785 6.74467 9.54785 9.788Z" fill="white"/>
</svg>
