<svg width="19" height="25" viewBox="0 0 19 25" fill="none" xmlns="http://www.w3.org/2000/svg">
<path fill-rule="evenodd" clip-rule="evenodd" d="M16.2979 8.4458H15.1729V6.1958C15.1729 3.0908 12.6529 0.570801 9.54785 0.570801C6.44285 0.570801 3.92285 3.0908 3.92285 6.1958V8.4458H2.79785C1.56035 8.4458 0.547852 9.4583 0.547852 10.6958V21.9458C0.547852 23.1833 1.56035 24.1958 2.79785 24.1958H16.2979C17.5354 24.1958 18.5479 23.1833 18.5479 21.9458V10.6958C18.5479 9.4583 17.5354 8.4458 16.2979 8.4458ZM9.54785 18.5708C8.31035 18.5708 7.29785 17.5583 7.29785 16.3208C7.29785 15.0833 8.31035 14.0708 9.54785 14.0708C10.7854 14.0708 11.7979 15.0833 11.7979 16.3208C11.7979 17.5583 10.7854 18.5708 9.54785 18.5708ZM6.17285 6.1958V8.4458H12.9229V6.1958C12.9229 4.3283 11.4154 2.8208 9.54785 2.8208C7.68035 2.8208 6.17285 4.3283 6.17285 6.1958Z" fill="#434343"/>
</svg>
