<svg width="22" height="14" viewBox="0 0 22 14" fill="none" xmlns="http://www.w3.org/2000/svg">
<path d="M11.2227 0.874512C12.0157 0.874512 12.7763 1.18954 13.337 1.75029C13.8978 2.31104 14.2128 3.07157 14.2128 3.86459C14.2128 4.65761 13.8978 5.41815 13.337 5.9789C12.7763 6.53965 12.0157 6.85467 11.2227 6.85467C10.4297 6.85467 9.66916 6.53965 9.10841 5.9789C8.54766 5.41815 8.23264 4.65761 8.23264 3.86459C8.23264 3.07157 8.54766 2.31104 9.10841 1.75029C9.66916 1.18954 10.4297 0.874512 11.2227 0.874512ZM5.24255 3.01028C5.72097 3.01028 6.16521 3.13843 6.54965 3.36909C6.4215 4.59076 6.78031 5.80387 7.51502 6.75216C7.08786 7.57229 6.23355 8.13614 5.24255 8.13614C4.56282 8.13614 3.91093 7.86612 3.43029 7.38547C2.94965 6.90483 2.67963 6.25294 2.67963 5.57321C2.67963 4.89348 2.94965 4.24159 3.43029 3.76095C3.91093 3.28031 4.56282 3.01028 5.24255 3.01028ZM17.2029 3.01028C17.8826 3.01028 18.5345 3.28031 19.0151 3.76095C19.4958 4.24159 19.7658 4.89348 19.7658 5.57321C19.7658 6.25294 19.4958 6.90483 19.0151 7.38547C18.5345 7.86612 17.8826 8.13614 17.2029 8.13614C16.2119 8.13614 15.3576 7.57229 14.9304 6.75216C15.6753 5.79056 16.021 4.57896 15.8958 3.36909C16.2802 3.13843 16.7245 3.01028 17.2029 3.01028ZM5.66971 11.767C5.66971 9.99853 8.15575 8.56329 11.2227 8.56329C14.2897 8.56329 16.7757 9.99853 16.7757 11.767V13.262H5.66971V11.767ZM0.971008 13.262V11.9805C0.971008 10.793 2.58565 9.7935 4.77268 9.50303C4.26864 10.084 3.96109 10.887 3.96109 11.767V13.262H0.971008ZM21.4744 13.262H18.4843V11.767C18.4843 10.887 18.1768 10.084 17.6727 9.50303C19.8598 9.7935 21.4744 10.793 21.4744 11.9805V13.262Z" fill="black"/>
</svg>
